<?xml version="1.0" encoding="utf-8"?>
<!-- Generator: Adobe Illustrator 26.0.3, SVG Export Plug-In . SVG Version: 6.00 Build 0)  -->
<svg width="250" height="168" version="1.0" id="katman_1" xmlns="http://www.w3.org/2000/svg" xmlns:xlink="http://www.w3.org/1999/xlink" x="0px" y="0px"
	 viewBox="0 0 250 168" style="enable-background:new 0 0 250 168;" xml:space="preserve">
<style type="text/css">
	.st0{fill-rule:evenodd;clip-rule:evenodd;fill:url(#SVGID_1_);}
</style>
<linearGradient id="SVGID_1_" gradientUnits="userSpaceOnUse" x1="78.3473" y1="50.1448" x2="157.7706" y2="119.307" gradientTransform="matrix(1 0 0 -1 0 170)">
	<stop  offset="0" style="stop-color:#AF893D"/>
	<stop  offset="0.2344" style="stop-color:#D29D40"/>
	<stop  offset="0.5312" style="stop-color:#FFCC74"/>
	<stop  offset="0.8229" style="stop-color:#E8B55D"/>
</linearGradient>
<path class="st0" d="M78.8,75.2l-4.1-32.7c0.3-0.2,0.7-0.4,1-0.6c2.3-1.2,5.8-2.9,10.3-4.5c9.1-3.3,22.3-6.6,38.9-6.6
	s29.9,3.3,38.9,6.6c4.5,1.6,8,3.3,10.3,4.5c0.4,0.2,0.7,0.4,1,0.6l-4.1,32.7c-3.8,2.1-9.6,6.6-9.6,15.8c0,5.4,2.2,9.6,4.4,12.2
	c0.7,0.9,1.4,1.6,2,2.2l-3.4,18.8L125,136.7l-39.6-12.3L82,105.5c0.6-0.6,1.3-1.3,2-2.2c2.1-2.7,4.4-6.8,4.4-12.2
	C88.5,81.9,82.6,77.4,78.8,75.2z M182.7,36.6L182.7,36.6L182.7,36.6l-0.1-0.1c-0.1,0-0.1-0.1-0.2-0.1c-0.2-0.1-0.5-0.3-0.8-0.5
	c-0.7-0.4-1.7-1-3-1.7c-2.6-1.4-6.5-3.2-11.4-5c-9.9-3.6-24.2-7.2-42.1-7.2s-32.2,3.6-42.1,7.2c-4.9,1.8-8.8,3.6-11.4,5
	c-1.3,0.7-2.3,1.3-3,1.7c-0.4,0.2-0.6,0.4-0.8,0.5c-0.1,0.1-0.2,0.1-0.2,0.1l-0.1,0l0,0l0,0l0,0l0,0L65,38.1L70.4,81l2.2,1.1
	c3,1.4,6.8,3.4,6.8,8.9c0,2.9-1.2,5.2-2.4,6.7c-0.6,0.8-1.3,1.4-1.7,1.8c-0.2,0.2-0.4,0.3-0.5,0.4c0,0-0.1,0.1-0.1,0.1l-2.5,1.6
	l5.3,29.6L125,146l47.6-14.8l5.3-29.6l-2.5-1.6c0,0,0,0-0.1-0.1c-0.1-0.1-0.3-0.2-0.5-0.4c-0.5-0.4-1.1-1-1.7-1.8
	c-1.3-1.6-2.4-3.8-2.4-6.7c0-5.5,3.8-7.5,6.8-8.9l2.2-1.1l5.4-42.9L182.7,36.6L182.7,36.6z M108.3,51.7L104,44h26.7
	c13.1,0,16.8,10.2,13.8,22.1c-1.6,6.6-6.4,13.7-8.8,16.3c3.8,10.2,11.5,31.2,12.5,33.1c0.9,1.9,2.9,3.7,3.8,4.4h-19.2
	c2-2.7,2.7-5.1,2.7-6c0-0.7-5.9-16.2-8.8-23.9l-7,5.5v18.6l3.8,5.7h-18.8l3.6-5.7V51.7z M119.8,83.1V52.5c0.6,0,1.3,0,1.9,0h0
	c3-0.1,6-0.1,8.3,1.4c2.8,1.8,4.1,6.3,3.2,11.1c-1.7,8.9-8.3,14.2-12.4,17.3C120.5,82.6,120.2,82.9,119.8,83.1z"/>
</svg>
