<svg width="43" height="43" viewBox="0 0 43 43" fill="none" xmlns="http://www.w3.org/2000/svg">
<path d="M21.437 24.1462C27.805 24.1462 32.912 18.7215 32.912 12.1062C32.912 5.49077 27.805 0 21.437 0C15.0689 0 9.96188 5.42462 9.96188 12.04C9.96188 18.6554 15.0689 24.1462 21.437 24.1462ZM21.437 3.17538C26.1026 3.17538 29.8856 7.14462 29.8856 12.04C29.8856 16.9354 26.1026 20.9046 21.437 20.9046C16.7713 20.9046 12.9883 17.0015 12.9883 12.1062C12.9883 7.21077 16.7713 3.17538 21.437 3.17538ZM1.5132 43H41.4868C42.3065 43 43 42.2723 43 41.4123C43 33.0769 36.5059 26.2631 28.5616 26.2631H14.4384C6.49413 26.2631 0 33.0769 0 41.4123C0 42.2723 0.693548 43 1.5132 43ZM14.4384 29.4385H28.5616C34.3622 29.4385 39.0909 33.9369 39.8475 39.8246H3.15249C3.90909 33.9369 8.63783 29.4385 14.4384 29.4385Z" fill="white"/>
</svg>
